<svg width="196" height="196" xmlns="http://www.w3.org/2000/svg"><g fill="none" fill-rule="evenodd"><path fill="#101010" d="M0 0h196v196H0z"/><path d="M34 98v-4c0-2.207 1.792-4 4-4h60V30c0-2.208 1.791-4 4-4h36c2.209.002 3.999 1.792 3.999 4v60h-40.02a3.98 3.98 0 00-3.98 3.98V98h8c19.732 0 35.753 15.872 35.998 35.544.188 15.226-9.412 28.528-23.592 34.077-4.292 1.679-8.432 2.36-12.406 2.357V170H34v-40c0-2.207 1.792-4 4-4h55.998c2.21 0 4.001-1.792 4-4V98H34zm124-8c2.21.001 4 1.792 4 4v4h-20v-8h16z" fill="#FFF" fill-rule="nonzero"/></g></svg>